<?xml version="1.0" encoding="UTF-8"?>
<svg id="Layer_2" data-name="Layer 2" xmlns="http://www.w3.org/2000/svg" viewBox="0 0 2589.54 699.45">
  <defs>
    <style>
      .cls-1 {
        fill: #5d0096;
      }

      .cls-2 {
        fill: #fff;
      }

      .cls-3 {
        fill: #fa4242;
      }
    </style>
  </defs>
  <g id="Capa_1" data-name="Capa 1">
    <g>
      <rect class="cls-2" x="1496.93" y="158.14" width="26.61" height="541.3"/>
      <g>
        <path class="cls-2" d="M173.7,479.79v-113.67c0-13.95-6.2-18.7-15.14-18.7s-18.65,4.75-28.26,11.58v120.79h-43.45v-113.67c0-13.95-6.2-18.7-15.14-18.7s-18.65,4.42-28.3,10.78v121.5H0v-165.98s37.96,0,37.96,0l4.8,13.96c14.13-9.54,30.66-18.04,49.64-18.04,14.66-.7,28.12,7.94,33.41,21.45,15.18-10.91,32.77-21.45,53.44-21.45,24.46,0,37.96,18.38,37.96,46.94v123.21h-43.53ZM323.57,483.95c-54.83,0-78.92-26.53-78.92-87.09s24.13-87.13,78.92-87.13,78.92,26.57,78.92,87.05-24.13,87.1-78.92,87.1v.08ZM323.57,345.47c-26.53,0-34.47,9.16-34.47,51.39s7.94,51.36,34.47,51.36,34.63-9.16,34.63-51.36-7.93-51.48-34.47-51.48l-.17.08ZM531.47,479.87l-5.82-16.66c-13.12,9.16-32.06,20.82-51.37,20.82-37.54,0-44.46-22.79-44.46-41.65v-128.66h43.45v114.2c0,13.3,4.8,18.74,15.81,18.74,9.99,0,25.31-8.87,36.91-17.7v-115.37h43.4v166.06l-37.92.21ZM704.16,479.87v-114.41c0-13.28-4.81-18.74-15.86-18.74-10,0-25.31,8.87-36.87,17.7v115.38h-43.45v-166.07h37.96l5.87,16.66c13.08-9.16,32.06-20.82,51.34-20.82,37.58,0,44.45,22.78,44.45,41.65v128.62l-43.44.04ZM773.08,549.81c-8.07-.07-16.12-.64-24.13-1.71v-36.4c7.2,1.93,14.6,2.96,22.06,3.08,13.46,0,15.14-6.12,15.14-23.49v-177.56h43.45v177.77c0,31.99-7.93,58.32-56.53,58.32M807.88,290.49c-17.58,0-24.46-7.49-24.46-24.99s6.88-24.53,24.46-24.53,24.47,7.17,24.47,24.53-6.88,24.99-24.47,24.99M963.65,480.04l-5.49-15.66c-17.89,12.08-34.76,18.78-52.39,18.78-26.57,0-47.58-7.49-47.58-46.98,0-48.98,21.09-61.22,99.97-60.22v-9.09c0-11.53.34-22.45-23.79-22.45-21.25.44-42.26,4.59-62.04,12.25v-37.03c20.58-5.9,41.84-9.21,63.27-9.87,40.33,0,64.79,12.5,64.79,51.73v118.41l-36.73.12ZM958.17,405.53c-43.78-1.5-60.07.16-60.07,26.36,0,11.92,4.81,21.12,21.72,21.12,14.19-.47,27.74-5.9,38.26-15.32l.08-32.16ZM1121.87,350.39c-15.14.62-29.71,5.86-41.72,14.99v114.66h-43.45v-166.31h37.96l5.52,15.67c13.84-13.09,32.17-20.53,51.34-20.83,1.73,0,3.79.33,5.86.33v42.23c-5.13-.87-10.33-1.21-15.52-1v.26ZM1232.13,484.12c-54.83,0-78.93-26.53-78.93-87.09s24.13-87.14,78.93-87.14,78.92,26.58,78.92,87.05-24.13,87.09-78.92,87.09v.08ZM1232.13,345.64c-26.53,0-34.46,9.16-34.46,51.39s7.93,51.36,34.46,51.36,34.46-9.17,34.46-51.36-7.93-51.48-34.46-51.48v.09Z"/>
        <path class="cls-2" d="M322.41,229.39l-1.09-3.08c-2.94,2.26-6.53,3.57-10.25,3.75-5.19,0-9.32-1.5-9.32-9.2,0-9.62,4.22-12.04,19.57-11.83v-1.8c0-2.25,0-4.41-4.64-4.41-4.16.08-8.27.89-12.15,2.41v-7.25c3.99-1.17,8.11-1.82,12.28-1.95,7.89,0,12.65,2.46,12.65,10.12v23.24h-7.04ZM321.31,214.77c-8.44-.25-11.73,0-11.73,5.2,0,2.34.93,4.17,4.22,4.17,2.78-.1,5.42-1.17,7.47-3l.05-6.37Z"/>
        <path class="cls-2" d="M364.59,230.18c-3.84-.03-7.66-.38-11.43-1.08l1.09-6.79c3.68.95,7.46,1.49,11.26,1.58,4.6,0,5.4-.91,5.4-3.25s0-2.75-5.4-4.17c-10.71-2.79-12.23-4.91-12.23-10.87s3.79-9.46,12.65-9.46c2.02,0,8.9.42,11.22.79l-.75,6.63c-3.43-.68-6.9-1.04-10.39-1.09-3.91,0-4.59.67-4.59,2.34s.55,2.41,4.51,3.41c12.65,3.25,13.12,5.42,13.12,12.12.12,7.5-6.25,9.83-14.47,9.83"/>
        <path class="cls-2" d="M392.72,215.89c.26,6.12,1.82,7.46,6.96,7.46,4.04-.04,8.06-.55,11.98-1.5v6.92c-4.28.88-8.62,1.35-12.99,1.42-10.97,0-14.35-4.17-14.35-17.08,0-11.2,2.32-17.08,14.35-17.08,10.92,0,13.5,3.95,13.5,17.08v2.79h-19.44ZM398.67,202.11c-4.6,0-5.78,2-5.95,8.08h11.14c.12-6.08-.97-8.08-5.06-8.08h-.13Z"/>
        <path class="cls-2" d="M488.3,229.39l-1.09-3.08c-2.94,2.26-6.53,3.57-10.25,3.75-5.19,0-9.32-1.5-9.32-9.2,0-9.62,4.22-12.04,19.57-11.83v-1.8c0-2.25,0-4.41-4.64-4.41-4.16.08-8.27.89-12.15,2.41v-7.25c4.02-1.18,8.17-1.83,12.36-1.95,7.89,0,12.66,2.46,12.66,10.12v23.24h-7.13ZM487.21,214.77c-8.44-.25-11.73,0-11.73,5.2,0,2.34.93,4.17,4.22,4.17,2.78-.1,5.42-1.17,7.47-3l.05-6.37Z"/>
        <path class="cls-2" d="M521.8,229.39v-22.41c0-2.62-.93-3.66-3.08-3.66-2.69.48-5.2,1.67-7.26,3.45v22.62h-8.43v-32.57h7.42l1.14,3.28c2.87-2.34,6.38-3.79,10.08-4.17,7.34,0,8.69,4.46,8.69,8.13v25.24l-8.56.08Z"/>
        <path class="cls-2" d="M556.93,229.39l-1.06-3.08c-2.95,2.25-6.53,3.56-10.25,3.75-5.27,0-9.49-1.5-9.49-9.28,0-9.62,4.22-12.03,19.57-11.83v-1.79c0-2.25,0-4.42-4.68-4.42-4.17.08-8.28.9-12.15,2.42v-7.17c4.02-1.17,8.18-1.82,12.36-1.95,7.93,0,12.65,2.46,12.65,10.12v23.24h-6.96ZM555.88,214.77c-8.43-.25-11.77,0-11.77,5.2-.3,2,1.1,3.87,3.12,4.17.37.05.73.05,1.09,0,2.78-.11,5.44-1.17,7.51-3l.04-6.37Z"/>
        <polygon class="cls-2" points="139.39 229.39 131.21 229.39 119.9 196.82 129.18 196.82 135.42 219.02 142.64 196.82 151.62 196.82 139.39 229.39"/>
        <polygon class="cls-2" points="186.71 229.39 186.71 222.98 201.77 203.57 187.85 203.57 187.85 196.82 212.66 196.82 212.66 203.23 197.3 222.64 212.91 222.64 212.91 229.39 186.71 229.39"/>
        <rect class="cls-2" x="287.27" y="182.58" width="8.43" height="46.82"/>
        <path class="cls-1" d="M843.56,79.16l-35.68,56.35-58.76,92.88h-79.3c-16.53-.05-29.91-13.32-29.86-29.65.06-5.47,1.64-10.81,4.56-15.46L751.65,13.76c8.85-13.8,27.35-17.91,41.32-9.18,3.75,2.34,6.92,5.47,9.29,9.18l41.3,65.39Z"/>
        <path class="cls-3" d="M971.33,183.28l-71.37-113.03c-8.79-13.86-27.3-18.06-41.33-9.37-3.84,2.38-7.09,5.58-9.49,9.37l-2.79,4.4-2.78,4.51-35.68,56.35,58.8,92.88h79.25c16.54-.05,29.91-13.32,29.86-29.65-.06-5.47-1.64-10.81-4.55-15.45h.08Z"/>
        <path class="cls-2" d="M1336.56,313.81c3.21,0,6.3.8,9.26,2.38,2.96,1.59,5.27,3.87,6.97,6.83,1.69,2.97,2.54,6.08,2.54,9.31s-.83,6.3-2.49,9.23c-1.65,2.93-3.97,5.21-6.93,6.84-2.96,1.64-6.08,2.46-9.34,2.46s-6.38-.82-9.34-2.46c-2.97-1.64-5.28-3.91-6.94-6.84-1.65-2.93-2.49-6-2.49-9.23s.86-6.34,2.54-9.31c1.69-2.96,4.01-5.24,6.96-6.83,2.96-1.58,6.05-2.38,9.27-2.38M1336.59,317.44c-2.58,0-5.06.64-7.42,1.91-2.37,1.27-4.23,3.1-5.6,5.49-1.36,2.39-2.05,4.89-2.05,7.49s.67,5.07,2,7.42c1.33,2.36,3.18,4.2,5.57,5.52,2.38,1.33,4.88,1.98,7.49,1.98s5.13-.66,7.5-1.98c2.38-1.32,4.23-3.16,5.58-5.52,1.33-2.35,2.01-4.82,2.01-7.42s-.69-5.11-2.05-7.49c-1.36-2.38-3.23-4.21-5.6-5.49-2.38-1.27-4.86-1.91-7.44-1.91M1328.09,342.26v-19.66h4.04c3.79,0,5.91.01,6.37.04,1.35.11,2.38.37,3.12.79.75.41,1.37,1.04,1.87,1.89.5.85.74,1.79.74,2.81,0,1.42-.47,2.63-1.4,3.64-.94,1-2.26,1.64-3.96,1.87.61.23,1.07.47,1.4.74.33.26.77.77,1.35,1.51.15.19.64.99,1.47,2.4l2.35,3.97h-5l-1.66-3.19c-1.12-2.15-2.06-3.5-2.79-4.05-.73-.56-1.66-.84-2.79-.84h-1.05v8.08h-4.04ZM1332.13,331.08h1.64c2.34,0,3.79-.09,4.35-.26.56-.17,1-.49,1.33-.93.32-.44.49-.95.49-1.51s-.17-1.04-.48-1.47c-.32-.43-.77-.73-1.35-.92-.59-.19-2.03-.28-4.34-.28h-1.64v5.37Z"/>
        <path class="cls-2" d="M453.12,229.39v-22.28c0-2.74-1.22-3.66-2.95-3.66-2.04.19-3.98.98-5.57,2.25v23.69h-8.44v-22.28c0-2.74-1.22-3.66-2.99-3.66-2.01.19-3.93.92-5.53,2.12v23.82h-8.43v-32.57h7.26l.93,2.74c2.79-2.12,6.17-3.36,9.7-3.53,2.87-.15,5.52,1.53,6.58,4.17,2.95-2.45,6.61-3.91,10.46-4.17,4.76,0,7.42,3.62,7.42,9.2v24.16h-8.43Z"/>
        <path class="cls-2" d="M162.5,215.89c.26,6.12,1.82,7.46,6.96,7.46,4.05-.04,8.09-.55,12.02-1.5v6.92c-4.29.88-8.65,1.35-13.03,1.42-10.92,0-14.3-4.17-14.3-17.08,0-11.2,2.28-17.08,14.3-17.08,10.92,0,13.5,3.95,13.5,17.08v2.79h-19.45ZM168.45,202.11c-4.6,0-5.74,2-5.95,8.09h11.14c0-6.09-1.06-8.09-5.19-8.09"/>
        <path class="cls-2" d="M24.91,228.55l-1.14-3.29c-2.85,2.34-6.35,3.78-10.04,4.17-7.39,0-8.73-4.5-8.73-8.33v-24.99h8.43v22.41c0,2.63.93,3.66,3.08,3.66,2.7-.48,5.2-1.67,7.26-3.46v-22.74h8.43v32.57h-7.3Z"/>
        <path class="cls-2" d="M57.01,229.39v-22.41c0-2.62-.93-3.66-3.12-3.66-2.68.48-5.17,1.67-7.21,3.45v22.62h-8.43v-32.57h7.34l1.26,3.12c2.85-2.35,6.35-3.8,10.04-4.17,7.39,0,8.74,4.46,8.74,8.12v25.24l-8.61.25Z"/>
        <path class="cls-2" d="M91.19,229.51l-1.09-3.08c-2.94,2.26-6.53,3.57-10.25,3.75-5.19,0-9.32-1.5-9.32-9.2,0-9.62,4.22-12.04,19.57-11.83v-1.8c0-2.25,0-4.41-4.64-4.41-4.16.08-8.27.9-12.15,2.41v-7.25c4.02-1.18,8.17-1.83,12.36-1.95,7.89,0,12.66,2.46,12.66,10.12v23.24h-7.13ZM90.09,214.9c-8.44-.25-11.73,0-11.73,5.2,0,2.34.93,4.17,4.22,4.17,2.78-.1,5.42-1.17,7.47-3l.05-6.37Z"/>
        <path class="cls-2" d="M255.09,229.39l-1.09-3.08c-2.94,2.26-6.53,3.57-10.26,3.75-5.18,0-9.32-1.5-9.32-9.2,0-9.62,4.22-12.04,19.57-11.83v-1.8c0-2.25,0-4.41-4.64-4.41-4.16.08-8.27.89-12.15,2.41v-7.25c4.02-1.18,8.17-1.83,12.36-1.95,7.89,0,12.66,2.46,12.66,10.12v23.24h-7.13ZM254,214.77c-8.44-.25-11.73,0-11.73,5.2,0,2.34.93,4.17,4.22,4.17,2.78-.1,5.42-1.17,7.47-3l.05-6.37Z"/>
      </g>
      <g>
        <g>
          <path class="cls-2" d="M1146.11,624.13c0,1.26,0,2.02-.1,2.87h-27.41c.5,11.89,4.03,19.65,10.73,19.65,4.28,0,7.41-1.76,11.08-6.2l4.23,4.63c-4.63,5.34-9.37,8.16-15.77,8.16-9.37,0-17.18-9.02-17.18-28.66,0-18.29,6.9-28.82,17.48-28.82s16.93,10.73,16.93,28.36ZM1118.71,620.61h20.6c-.4-10.63-3.63-18.24-10.33-18.24-5.64,0-9.67,5.69-10.28,18.24Z"/>
          <polygon class="cls-2" points="1101.28 575.47 1101.28 652.09 1094.27 652.09 1094.27 579.7 1101.28 575.47"/>
          <path class="cls-2" d="M1068.33,595.77c9.87,0,15.31,9.77,15.31,28.26s-5.94,29.22-16.07,29.22c-4.74,0-8.26-2.32-11.03-5.34v4.18h-7v-72.39l7-4.23v26.2c2.77-3.17,6.7-5.89,11.79-5.89ZM1067.17,646.75c6.8,0,9.47-8.82,9.47-22.62,0-14.81-3.27-21.86-9.87-21.86-3.93,0-7.46,2.22-10.23,5.49v33.3c2.67,3.38,6.2,5.69,10.63,5.69Z"/>
          <path class="cls-2" d="M1037.55,611.24v40.86h-7v-4.58c-3.02,3.12-6.9,5.74-12.19,5.74-5.79,0-10.53-3.07-12.54-9.92-.71-2.27-1.06-4.99-1.06-8.16,0-12.39,6.9-17.93,16.07-17.93,3.93,0,7.36,1.06,9.72,2.52v-7.81c0-6.6-2.67-9.67-8.36-9.67-3.93,0-7.2,1.56-11.03,4.53l-3.17-5.49c4.43-3.43,9.17-5.54,14.71-5.54,9.17,0,14.86,3.78,14.86,15.47ZM1030.55,641.31v-15.37c-2.57-1.51-5.09-2.42-9.82-2.42-6.15,0-8.97,4.18-8.97,11.33s2.67,12.09,7.86,12.09c4.43,0,8.36-2.42,10.93-5.64Z"/>
          <path class="cls-2" d="M997.35,645.09l-.65,6.6c-2.37,1.06-4.84,1.56-8.01,1.56-5.89,0-8.66-3.48-8.92-10.48-.05-.35-.05-.76-.05-1.16v-38.59h-5.54v-6.1h5.54v-17.23l6.9-4.23v21.46h10.38v6.1h-10.38v37.83c0,4.03,1.36,5.69,4.13,5.69,2.47,0,4.23-.4,6.6-1.46Z"/>
          <path class="cls-2" d="M966.32,603.38c.4.65.81,1.31,1.16,1.96l-5.24,4.28c-2.57-4.38-4.84-7.25-9.17-7.25-6.2,0-10.53,7.25-10.53,22.12,0,13.35,3.63,22.17,10.83,22.17,4.03,0,6.6-2.52,9.27-7.15l4.84,3.98c-3.48,6.1-7.81,9.77-14.31,9.77-7.05,0-12.8-4.69-15.67-13.6-1.36-4.03-2.07-8.97-2.07-14.76,0-19.65,8.16-29.12,18.04-29.12,6.05,0,9.97,3.22,12.85,7.61Z"/>
          <path class="cls-2" d="M927.02,624.13v.55c0,.96,0,1.61-.1,2.32h-27.41c.5,11.89,4.03,19.65,10.73,19.65,4.33,0,7.41-1.76,11.13-6.2l4.23,4.63c-4.63,5.34-9.37,8.16-15.77,8.16-9.37,0-17.23-9.02-17.23-28.66,0-18.29,6.9-28.82,17.53-28.82s16.88,10.73,16.88,28.36ZM899.62,620.61h20.6c-.4-10.63-3.58-18.24-10.28-18.24-5.69,0-9.72,5.69-10.33,18.24Z"/>
          <path class="cls-2" d="M887.47,596.93l-20.3,74.61h-7l5.64-18.79-14.81-55.82h7.41l8.46,35.92c.6,2.52,2.17,9.27,2.47,11.49.4-2.22,1.71-8.82,2.37-11.49l8.31-35.92h7.46Z"/>
          <path class="cls-2" d="M843.9,614.26v37.83h-7.1v-36.98c0-9.07-2.67-12.85-8.77-12.85-4.33,0-7.61,3.07-9.87,6.4v43.43h-7v-55.16h7v4.63c2.37-3.07,6.2-5.79,11.64-5.79,9.17,0,14.11,6.2,14.11,18.49Z"/>
          <rect class="cls-2" x="791.76" y="596.93" width="7" height="55.16"/>
          <path class="cls-2" d="M795.49,576.02c2.57,0,4.74,2.42,4.74,5.24s-2.17,5.24-4.74,5.24c-2.82,0-5.04-2.42-5.04-5.24s2.22-5.24,5.04-5.24Z"/>
          <path class="cls-2" d="M758.26,614.26v37.83h-7.1v-36.98c0-9.07-2.67-12.85-8.77-12.85-4.33,0-7.61,3.07-9.87,6.4v43.43h-7v-55.16h7v4.63c2.37-3.07,6.2-5.79,11.64-5.79,9.17,0,14.11,6.2,14.11,18.49Z"/>
          <path class="cls-2" d="M697,595.77c11.03,0,18.29,9.87,18.29,28.61s-7.51,28.87-18.54,28.87-18.29-9.87-18.29-28.66,7.41-28.82,18.54-28.82ZM696.9,646.65c7.1,0,11.33-7.25,11.33-22.17s-4.33-22.12-11.49-22.12-11.23,7.15-11.23,22.12,4.23,22.17,11.39,22.17Z"/>
          <polygon class="cls-2" points="710.9 572.75 697.6 589.57 692.36 589.57 701.18 572.75 710.9 572.75"/>
          <polygon class="cls-2" points="668.23 596.93 668.23 652.09 661.28 652.09 661.28 643.48 661.28 605.34 661.28 596.93 668.23 596.93"/>
          <path class="cls-2" d="M664.96,576.02c2.57,0,4.74,2.42,4.74,5.24s-2.17,5.24-4.74,5.24c-2.77,0-5.04-2.42-5.04-5.24s2.27-5.24,5.04-5.24Z"/>
          <path class="cls-2" d="M651.96,605.34l-5.24,4.28c-2.62-4.38-4.89-7.25-9.17-7.25-6.2,0-10.53,7.25-10.53,22.12,0,13.35,3.58,22.17,10.83,22.17,3.98,0,6.6-2.52,9.27-7.15l4.84,3.98c-3.53,6.1-7.86,9.77-14.31,9.77-10.23,0-17.73-9.87-17.73-28.36,0-19.65,8.11-29.12,18.04-29.12,6.9,0,11.03,4.18,14,9.57Z"/>
          <path class="cls-2" d="M609.69,596.93v55.16h-6.95v-4.58c-2.42,3.02-6.2,5.74-11.69,5.74-9.17,0-14.11-6.2-14.11-18.49v-37.83h7.1v36.98c0,9.07,2.67,12.85,8.77,12.85,4.33,0,7.66-3.02,9.92-6.4v-43.43h6.95Z"/>
          <polygon class="cls-2" points="564.81 575.47 564.81 652.09 557.8 652.09 557.8 579.7 564.81 575.47"/>
          <path class="cls-2" d="M528.99,595.77c11.03,0,18.34,9.87,18.34,28.61s-7.51,28.87-18.54,28.87c-9.07,0-15.52-6.5-17.58-19.04-.5-2.92-.76-6.1-.76-9.62,0-7.05,1.06-12.9,2.92-17.38,3.17-7.56,8.66-11.44,15.62-11.44ZM528.89,646.65c7.1,0,11.33-7.25,11.33-22.17s-4.33-22.12-11.44-22.12-11.23,7.15-11.23,22.12,4.23,22.17,11.33,22.17Z"/>
          <path class="cls-2" d="M502.14,634.26c.3,1.36.45,2.82.45,4.48,0,9.17-7,14.51-15.21,14.51-6.8,0-11.84-3.88-15.26-9.02l5.04-4.63c3.43,4.53,6.4,7.15,10.43,7.15,5.24,0,8.21-2.82,8.21-7.15,0-4.94-1.91-7.86-10.08-12.95-8.46-5.24-12.34-9.02-12.34-17.23s5.74-13.65,14-13.65c6.5,0,11.23,3.17,14.21,7.96l-5.24,4.53c-2.47-3.48-5.19-5.99-9.42-5.99s-6.8,2.62-6.8,6.65c0,4.28,1.96,6.6,9.72,11.54,6.85,4.28,10.98,7.91,12.29,13.8Z"/>
          <path class="cls-2" d="M428.64,576.93c9.17,11.69,15.37,25.44,15.37,43.12s-6.2,31.94-15.37,43.63l-3.93-3.07c7.66-10.48,12.09-24.18,12.09-40.15s-4.43-29.92-12.09-40.45l3.93-3.07Z"/>
          <path class="cls-2" d="M417.96,611.24v40.86h-7v-4.58c-2.97,3.12-6.9,5.74-12.19,5.74-7.71,0-13.55-5.44-13.55-18.09s6.85-17.93,16.02-17.93c3.93,0,7.36,1.06,9.72,2.52v-7.81c0-6.6-2.67-9.67-8.36-9.67-3.93,0-7.2,1.56-11.03,4.53l-3.17-5.49c4.43-3.43,9.17-5.54,14.71-5.54,9.17,0,14.86,3.78,14.86,15.47ZM410.95,641.31v-15.37c-2.57-1.51-5.04-2.42-9.82-2.42-6.15,0-8.97,4.18-8.97,11.33s2.72,12.09,7.86,12.09c4.43,0,8.36-2.42,10.93-5.64Z"/>
          <path class="cls-2" d="M375.69,575.47v76.62h-7v-4.69c-2.87,3.12-6.8,5.84-11.84,5.84-9.87,0-15.21-9.77-15.21-28.26s5.84-29.22,15.92-29.22c4.89,0,8.26,2.32,11.13,5.34v-21.41l7-4.23ZM368.69,641.31v-33.35c-2.67-3.38-6.25-5.69-10.58-5.69-6.8,0-9.52,8.82-9.52,22.62,0,14.81,3.32,21.86,9.92,21.86,3.93,0,7.3-2.22,10.18-5.44Z"/>
          <polygon class="cls-2" points="331.21 596.93 331.21 652.09 324.25 652.09 324.25 645.09 324.25 603.03 324.25 596.93 331.21 596.93"/>
          <path class="cls-2" d="M327.93,576.02c2.57,0,4.74,2.42,4.74,5.24s-2.17,5.24-4.74,5.24c-2.77,0-5.04-2.42-5.04-5.24s2.27-5.24,5.04-5.24Z"/>
          <path class="cls-2" d="M314.73,645.09l-.6,6.6c-2.37,1.06-4.89,1.56-8.06,1.56-6.2,0-8.97-3.88-8.97-11.64v-38.59h-5.54v-6.1h5.54v-17.23l6.9-4.23v21.46h10.43v6.1h-10.43v37.83c0,4.03,1.36,5.69,4.13,5.69,2.47,0,4.23-.4,6.6-1.46Z"/>
          <path class="cls-2" d="M283.65,641.61v10.48h-7v-4.58c-2.97,3.12-6.9,5.74-12.14,5.74-7.76,0-13.6-5.44-13.6-18.09s6.9-17.93,16.07-17.93c3.88,0,7.3,1.06,9.67,2.52v-7.81c0-6.6-2.67-9.67-8.36-9.67-3.88,0-7.2,1.56-11.03,4.53l-3.17-5.49c4.43-3.43,9.17-5.54,14.76-5.54,6.85,0,11.79,2.12,13.8,8.11.65,2.02,1.01,4.43,1.01,7.36v30.38ZM276.65,641.31v-15.37c-2.57-1.51-5.04-2.42-9.77-2.42-6.2,0-8.97,4.18-8.97,11.33s2.67,12.09,7.81,12.09c4.43,0,8.36-2.42,10.93-5.64Z"/>
          <path class="cls-2" d="M227.48,595.77c9.87,0,15.37,9.77,15.37,28.26s-5.99,29.22-16.07,29.22c-4.74,0-8.26-2.32-11.03-5.34v20.3l-7,4.18v-75.47h7v4.74c2.77-3.17,6.7-5.89,11.74-5.89ZM226.37,646.75c6.8,0,9.47-8.82,9.47-22.62,0-14.81-3.32-21.86-9.92-21.86-3.88,0-7.41,2.22-10.18,5.49v33.3c2.67,3.38,6.2,5.69,10.63,5.69Z"/>
          <path class="cls-2" d="M198.71,624.13c0,1.26,0,2.02-.1,2.87h-27.41c.5,11.89,4.03,19.65,10.73,19.65,4.33,0,7.41-1.76,11.13-6.2l4.18,4.63c-4.58,5.34-9.37,8.16-15.72,8.16-5.89,0-11.13-3.53-14.26-10.98-1.86-4.43-2.97-10.33-2.97-17.68,0-6.85.96-12.59,2.72-17.13,2.97-7.56,8.16-11.69,14.81-11.69,11.03,0,16.88,10.73,16.88,28.36ZM171.31,620.61h20.6c-.4-10.63-3.58-18.24-10.28-18.24-5.69,0-9.72,5.69-10.33,18.24Z"/>
          <polygon class="cls-2" points="157.86 645.9 157.86 652.09 127.58 652.09 127.58 646.65 150.2 603.13 129.54 603.13 129.54 596.93 157.86 596.93 157.86 602.37 135.19 645.9 157.86 645.9"/>
          <path class="cls-2" d="M121.79,596.93l-1.96,7.46c-1.96-1.16-3.73-1.66-6.5-1.66-3.43,0-6.6,2.82-8.56,6.2v43.17h-7v-55.16h7v4.74c2.17-3.27,5.99-5.89,10.43-5.89,3.17,0,5.04.4,6.6,1.16Z"/>
          <polygon class="cls-2" points="85.36 596.93 85.36 652.09 78.36 652.09 78.36 645.09 78.36 603.03 78.36 596.93 85.36 596.93"/>
          <path class="cls-2" d="M82.09,576.02c2.57,0,4.74,2.42,4.74,5.24s-2.17,5.24-4.74,5.24c-2.77,0-5.04-2.42-5.04-5.24s2.27-5.24,5.04-5.24Z"/>
          <path class="cls-2" d="M68.89,645.09l-.65,6.6c-2.37,1.06-4.84,1.56-8.01,1.56-6.2,0-8.97-3.88-8.97-11.64v-38.59h-5.54v-6.1h5.54v-17.23l6.9-4.23v21.46h10.43v6.1h-10.43v37.83c0,4.03,1.36,5.69,4.13,5.69,2.47,0,4.23-.4,6.6-1.46Z"/>
          <path class="cls-2" d="M37.3,576.93l3.93,3.07c-7.51,10.53-11.94,24.08-11.94,40.05s4.43,30.08,11.94,40.55l-3.93,3.07c-9.07-11.69-15.21-25.54-15.21-43.22s6.15-31.84,15.21-43.53Z"/>
        </g>
        <g>
          <path class="cls-2" d="M1207.55,597.97v4.18h-6.61v-3.96c0-7.93-2.97-13.99-12.22-13.99-7.93,0-12.01,5.29-12.01,12.78,0,8.15,4.85,11.34,14.43,16.52,10.79,5.84,16.96,10.46,16.96,22.03s-7.6,19.28-19.61,19.28c-12.89,0-19.39-7.6-19.39-19.61v-5.07h6.5v4.63c0,9.03,4.29,14.21,12.89,14.21,8.15,0,12.89-4.74,12.89-13.11s-4.3-11.57-14.76-16.96c-9.8-5.07-16.63-10.13-16.63-21.7,0-10.46,6.5-18.84,18.83-18.84,13.55,0,18.73,8.48,18.73,19.61Z"/>
          <path class="cls-2" d="M1225.49,640.82v12.45h-7.27v-12.45h7.27Z"/>
          <path class="cls-2" d="M1275.94,598.52v6.83h-6.5v-5.84c0-10.02-4.74-15.31-12.89-15.31s-13.22,6.39-13.22,15.42v33.93c0,9.03,5.29,15.42,13.22,15.42s12.89-5.29,12.89-15.31v-5.84h6.5v6.83c0,13.22-7.93,20.16-19.83,20.16s-19.61-8.7-19.61-21.7v-33.05c0-13,8.04-21.7,19.94-21.7s19.5,6.83,19.5,20.16Z"/>
          <path class="cls-2" d="M1294.43,640.82v12.45h-7.27v-12.45h7.27Z"/>
        </g>
      </g>
      <path class="cls-2" d="M2306.93,475.61c5.29-3.78,11.01-8.18,16.34-12.38,41.06-32.87,72.44-68.9,78.64-88.84.2-.63.74-2.47.74-3.95,0-2.06-.98-3.5-2.85-3.5-18.85,0-79.34,60.25-93.96,109.06v.19l1.09-.57ZM2155.31,468.66c57.17-43.2,117.25-106.13,123.66-131.96.17-.83.39-1.67.36-2.46-.09-1.7-1.02-3.23-3.18-3.23-18.07,0-101.88,77.34-120.84,137.65M1804.26,506.67c-15.1-10.48-38.45-19.63-59.31-19.63s-33.16,7.94-33.16,17.99c0,11.5,15.71,16.54,33.28,16.54,21.3,0,40.65-5.77,59.18-14.9M1979.41,371.08c40.97-13.14,79.86-40.63,108.86-69.35,26.81-26.58,48.27-58.1,48.27-73.72,0-3.58-2.57-5.73-5.79-5.73-12.41,0-35.94,16.5-67.64,48.24-24.67,24.75-53.41,58.53-83.7,100.56M2589.54,470.26c-35.19,35.05-144.9,131.41-173.93,212.47l-35.96-9.28c11.76-33.57,47.15-85.8,86.58-126.09-8.38,3.17-17.13,4.33-24.17,4.33-10.64,0-18.94-3.21-23.93-9.26-3.56-4.35-5.38-10.04-5.38-16.78,0-1.47.11-2.93.31-4.6-34.65,21.13-62.52,30.64-89.79,30.64-21.24,0-39.12-9.26-47.38-25.49-34.39,17.06-67.37,25.49-94.92,25.49-25.66,0-46.35-10.16-55.83-28.69-34.78,19.57-64.33,28.69-87.87,28.69-13.54,0-24.29-3.75-31.21-10.87-5.05-5.23-7.75-12.27-8.11-20.43-22.29,14.7-54.85,31.31-88.25,31.31s-57.04-11.71-74.82-23.35c-28.32,15.71-59.53,23.35-92.5,23.35-24.92,0-65.13-10.38-65.13-46.13,0-28.88,30.1-48.43,70.36-48.43,34.24,0,67.24,14.43,87.95,29.43,19.65-15.66,40.26-37.56,64.58-68.52-5.35.3-10.58.46-15.71.46-46.59,0-85.48-13.74-106.7-37.78-11.48-13.01-16.89-28.26-16.89-44.65,0-64.85,81.84-115.14,153.41-122.54,4.74,10.73,8.96,19,13.34,28.83-70.72,8.21-129.62,50.1-129.62,91.03,0,26.93,30.21,53.93,94.37,53.93,10.96,0,22.03-1.06,32.89-2.55,56.62-78.19,143.38-199.65,218.04-199.65,22.11,0,33.65,13.44,33.65,31.42,0,36.99-31.77,76.79-52.46,97.56-32.56,32.71-91.4,81.37-173.58,97.49-31.98,44.51-58.25,74.03-84.53,95.33,15.93,8.6,30.86,13.86,48.67,13.86,44.24,0,87.15-40.52,120.67-74.87l1.18-1.15,26.15,20.43-1.23,1.45c-14.8,17-28.47,34.96-28.47,45.03,0,7.64,6.46,9.15,12,9.15,16.96,0,43.05-10.95,73.78-29.89v-.24c3.4-75.97,107.03-192.18,169.93-192.18,17.76,0,27.95,8.84,27.95,24.36,0,38.08-65.67,119.75-161.16,182.24v.05c4.93,10.63,16.3,15.76,35.61,15.76,15.08,0,44.54-6.7,79.57-25.03,4.06-39.37,26.36-81.64,54.6-111.75,28.39-30.17,60.18-49.79,87.66-49.79,16.96,0,26.95,9.33,26.95,23.99,0,33.23-38.54,90.04-131.4,149.48,4.14,7.97,12.11,13,24.5,13,27.66,0,76.38-29.52,114.32-65.84l27.25,21.19c-11.64,14.12-23.4,29.65-23.03,38.58.11,2.9,2.06,4.84,6.63,4.84,27.98,0,72-36.95,105.03-69.57l26.03,20.23ZM2083.25,394.05c12.36,0,22.33,10.04,22.33,22.37s-9.97,22.37-22.33,22.37-22.39-10.02-22.39-22.37,10-22.37,22.39-22.37"/>
    </g>
  </g>
</svg>